<?xml version="1.0" encoding="UTF-8"?>
<svg width="38px" height="38px" viewBox="0 0 38 38" version="1.1" xmlns="http://www.w3.org/2000/svg" xmlns:xlink="http://www.w3.org/1999/xlink">
    <!-- Generator: sketchtool 53.2 (72643) - https://sketchapp.com -->
    <title>B36552CA-C25B-4DEE-9390-E370117ABC2F</title>
    <desc>Created with sketchtool.</desc>
    <g id="Asset-Artboard-Page" stroke="none" stroke-width="1" fill="none" fill-rule="evenodd" stroke-linecap="round" stroke-linejoin="round">
        <g id="Icon/Services/Loans" stroke="#000C3D" stroke-width="1.319">
            <path d="M28.2544322,8.93417922 C28.2544322,10.5221792 27.0564322,11.8091792 25.5774322,11.8091792 C24.0994322,11.8091792 22.9004322,10.5221792 22.9004322,8.93417922 C22.9004322,7.34617922 24.0994322,6.05817922 25.5774322,6.05817922 C27.0564322,6.05817922 28.2544322,7.34617922 28.2544322,8.93417922 Z" id="Stroke-1"></path>
            <path d="M18.5840322,15.7290792 C13.5330322,11.8540792 15.6210322,7.05307922 16.3780322,4.51407922 C17.1360322,1.97507922 18.9570322,3.07907922 18.6720322,4.56207922 C17.2810322,10.9940792 21.8310322,14.1790792 28.1450322,15.0920792 C34.4590322,16.0050792 34.2780322,22.7050792 34.2780322,22.7050792 L21.8670322,22.7050792" id="Stroke-3"></path>
            <path d="M9.02443219,20.8296792 C9.02443219,22.4176792 10.2224322,23.7056792 11.7014322,23.7056792 C13.1794322,23.7056792 14.3784322,22.4176792 14.3784322,20.8296792 C14.3784322,19.2416792 13.1794322,17.9546792 11.7014322,17.9546792 C10.2224322,17.9546792 9.02443219,19.2416792 9.02443219,20.8296792 Z" id="Stroke-5"></path>
            <path d="M3.00053219,34.6011792 C3.00053219,34.6011792 2.81953219,27.9011792 9.13353219,26.9881792 C15.4475322,26.0751792 19.9985322,22.8891792 18.6065322,16.4581792 C18.3215322,14.9751792 20.1425322,13.8711792 20.9005322,16.4101792 C21.6585322,18.9501792 23.7465322,23.7491792 18.6945322,27.6251792 C16.1695322,29.5631792 15.4255322,32.4691792 15.3125322,34.8911792 L3.00053219,34.6011792 Z" id="Stroke-7"></path>
        </g>
    </g>
</svg>